<?xml version="1.0" standalone="no"?>
<!DOCTYPE svg PUBLIC "-//W3C//DTD SVG 20010904//EN"
 "http://www.w3.org/TR/2001/REC-SVG-20010904/DTD/svg10.dtd">
<svg version="1.0" xmlns="http://www.w3.org/2000/svg"
 width="512.000000pt" height="512.000000pt" viewBox="0 0 512.000000 512.000000"
 preserveAspectRatio="xMidYMid meet">
<metadata>
Created by potrace 1.14, written by Peter Selinger 2001-2017
</metadata>
<g transform="translate(0.000000,512.000000) scale(0.100000,-0.100000)"
fill="#000000" stroke="none">
<path d="M913 4830 c-13 -11 -24 -27 -24 -35 -1 -8 -2 -21 -3 -29 0 -8 45 -88
102 -178 57 -89 108 -172 115 -183 7 -11 29 -45 50 -77 20 -31 37 -59 37 -62
0 -5 46 -77 101 -158 10 -14 20 -32 21 -40 2 -7 8 -17 14 -23 6 -5 112 -170
234 -365 123 -195 237 -377 255 -405 17 -27 50 -79 73 -115 l42 -66 583 2
c320 1 584 2 585 3 5 1 -35 49 -121 144 -39 43 -78 87 -87 96 -32 38 -156 175
-167 187 -22 22 -14 31 23 29 42 -2 137 35 171 67 93 85 64 229 -57 290 -69
35 -72 35 -327 43 -116 4 -218 8 -227 9 -23 3 -146 127 -139 139 3 6 2 7 -4 4
-5 -3 -168 153 -362 348 -332 335 -354 355 -389 356 -20 1 -46 3 -57 4 -11 1
-58 6 -105 10 -95 7 -131 11 -240 20 -68 6 -77 5 -97 -15z"/>
<path d="M60 3668 c-51 -30 -47 -46 101 -430 77 -198 137 -363 134 -368 -2 -4
-17 -10 -32 -13 -46 -10 -120 -63 -157 -114 -118 -162 -53 -395 132 -474 25
-11 48 -22 50 -23 1 -2 -31 -86 -72 -187 -41 -101 -106 -263 -145 -358 -39
-96 -71 -183 -71 -192 0 -10 11 -30 23 -45 l24 -27 225 0 c124 0 236 3 249 6
15 4 50 40 93 97 37 49 73 90 79 90 5 0 8 3 4 6 -5 6 36 63 129 179 14 17 50
64 81 105 31 41 80 105 110 142 l52 66 1573 1 1573 0 115 30 c142 38 121 32
210 65 288 110 525 227 557 275 30 44 29 78 -2 124 -21 30 -50 49 -158 101
-187 90 -206 98 -357 154 -124 47 -152 57 -172 61 -4 1 -26 8 -48 16 -89 32
-166 37 -523 36 -287 -1 -357 1 -351 11 6 10 5 11 -7 1 -22 -18 -1603 -17
-1592 0 5 9 3 9 -8 0 -11 -9 -118 -12 -414 -12 l-400 1 -35 46 c-19 25 -61 80
-93 121 -32 42 -72 94 -88 116 -16 22 -41 54 -53 70 -13 17 -74 95 -136 175
-61 80 -119 149 -128 154 -8 5 -112 9 -230 10 -184 1 -219 -1 -242 -16z m1018
-1067 c27 -23 28 -55 2 -81 -19 -19 -34 -20 -435 -20 -401 0 -416 1 -435 20
-25 25 -25 55 0 80 19 19 33 20 433 20 390 0 415 -1 435 -19z"/>
<path d="M1920 2018 c0 -3 -59 -100 -131 -215 -73 -114 -137 -217 -143 -228
-6 -10 -16 -25 -23 -32 -6 -7 -15 -22 -18 -33 -3 -11 -11 -20 -16 -20 -5 0 -9
-4 -9 -10 0 -8 -159 -265 -304 -490 -23 -36 -93 -146 -155 -245 -62 -99 -139
-223 -172 -275 -65 -101 -72 -131 -44 -174 20 -30 24 -31 215 -11 53 5 177 16
249 21 36 3 72 9 82 15 10 5 203 195 429 423 227 228 420 414 429 414 36 -2
410 13 456 18 155 18 251 157 189 276 -30 59 -148 119 -223 114 -37 -3 -37 -2
-8 28 12 13 34 37 48 52 94 105 209 234 234 263 17 19 37 41 45 50 8 9 25 27
37 41 l22 26 -594 0 c-327 0 -595 -4 -595 -8z"/>
</g>
</svg>
